<svg xmlns="http://www.w3.org/2000/svg" xmlns:xlink="http://www.w3.org/1999/xlink" id="layer" x="0px" y="0px" viewBox="0 0 652 652" xml:space="preserve" class="w-16 h-auto"><title>Accel</title><style type="text/css">
	.st0{fill:#3c3c3c;}
</style><path class="st0" d="M484.6,382.6c-3.9-4.6-6.9-9.8-8.8-15.5l-0.5-1.4l-0.5-1.8l-0.3-1.1l-0.5-2l-0.3-1.2c-0.3-1.1-0.5-2.3-0.7-3.5  c0-0.4-0.1-0.9-0.2-1.3l-0.3-2.1c0.1-0.5,0.1-0.9,0-1.4l-0.2-1.8l89.4-21.5c-0.5-4.6-1.9-9.1-4.1-13.2c-3.3-7.2-8.7-13.3-15.5-17.4  c-7.5-4.7-15.9-7.8-24.7-9.1l-1.5-0.2c-5.3-0.6-10.7-0.6-16,0c-14.1,1.5-27.3,7.5-37.7,17.1c-10.3,9.4-17.2,21.9-19.5,35.6v0.5  c-0.2,0.9-0.3,1.8-0.4,2.7s0,1.1-0.2,1.8c0,0.5,0,1,0,1.5c0.1,0.8,0.1,1.7,0,2.6v4.1c0.2,7.4,1.8,14.7,4.6,21.5  c10.3,23.9,33.8,39.5,59.8,39.7c10.8,0.2,21.5-2.2,31.1-7c9.6-4.7,17.8-11.7,24-20.4l-1.5-3.9C553.9,396,510.3,411,484.6,382.6z   M525.2,329.6l-53.1,12.8c0-1.6,0-3.2,0.2-4.7v-0.5c0-0.5,0-1,0-1.5l0.3-2.1c0.5-3.3,1.2-6.6,2.2-9.8c1.8-5.9,4.6-11.5,8.2-16.6  c3.3-4.7,7.5-8.6,12.4-11.5c4.7-2.8,10.1-4.3,15.5-4.2c7.6,0,13.2,2.1,16.7,6.4c1.3,1.5,2.4,3.1,3.2,4.9  C534.4,311.8,534.1,326.8,525.2,329.6z M325.1,383.9c-6.4,12.2-49.9,27.2-75.6-1.3c-4.2-4.9-7.4-10.7-9.3-16.9  c-2.2-7-3.3-14.4-3.2-21.7c0-6.9,1-13.7,3-20.3c1.8-5.9,4.6-11.5,8.2-16.6c3.2-4.6,7.4-8.5,12.2-11.5c4.7-2.8,10.1-4.3,15.5-4.2  c7.6,0,13.2,2.1,16.7,6.4c3.6,4.6,5.5,10.4,5.3,16.2c0.1,3-0.4,6.1-1.3,9l27.1-6.4c-9.9-25.5-42.5-29.1-48.6-29.1  c-51.8-0.8-80.2,47.9-63.4,87.5c10.3,23.9,33.8,39.5,59.8,39.8c10.8,0.2,21.5-2.2,31.1-7c9.6-4.7,17.8-11.7,24-20.4L325.1,383.9z   M442.8,383.9c-6.4,12.2-49.9,27.2-75.6-1.3c-4.2-4.9-7.3-10.6-9.2-16.7c-2.2-7-3.3-14.4-3.2-21.7c0-6.9,1-13.7,3-20.3  c1.8-5.9,4.5-11.5,8.1-16.6c3.2-4.7,7.4-8.6,12.2-11.6c4.7-2.8,10.1-4.3,15.5-4.2c7.6,0,13.2,2.1,16.7,6.4  c3.7,4.6,5.6,10.3,5.4,16.2c0.1,3-0.4,6.1-1.4,9l27-6.4c-9.8-25.5-42.5-29-48.4-29c-51.8-0.8-80.2,47.9-63.4,87.5  c10.3,24,33.7,39.7,59.8,40c10.8,0.2,21.5-2.2,31.2-7c9.6-4.7,17.8-11.7,24-20.4L442.8,383.9z M600.9,389.6V226.8l-38.3,9.3h-0.3  v3.6c1.3,0,12.9,3.2,12.9,11.2V389c0,17.4-12.3,19.9-20.6,20.5v2.9h66.9v-2.9C613.2,408.9,601.2,406.4,600.9,389.6z M137.9,226.8  l-37.9,9.3h-0.3v2.8c1.3,0,12.6,4,9.6,11.2C94.9,281.9,48.2,388.2,45.8,393c-8.1,16-19.5,16-24.3,16.5v2.9h59.4v-3  c0,0-22.5,0.3-22.5-11.5c0-7.1,11.6-35.3,14.8-43l77.3-18.9c0.2,0.5,21,50.9,21,61.5c0,11.5-18.5,11.8-19.1,11.8v2.9h77.5v-2.9  c-11.2,0.2-21.5-6.3-26.1-16.6C201.4,388.2,137.9,226.8,137.9,226.8z M147.8,329.6L76.4,347c0.4-0.9,39.2-91.9,40.3-94.2  C118.3,256.5,147.8,329.6,147.8,329.6L147.8,329.6z" fill="#000000"></path></svg>