<svg width="78" height="20" viewBox="0 0 78 20" fill="none" xmlns="http://www.w3.org/2000/svg" class="w-20 h-auto"><title>Brex</title><g clip-path="url(#clip0)"><path d="M52.5811 4.13312C51.2323 4.13312 50.1923 4.61375 49.2273 5.61688V4.36687H46.5786V16.6669H49.4286V9.53313C49.4286 7.9 50.4011 6.86688 51.8767 6.86688C52.1448 6.86688 52.3798 6.9 52.5473 6.93313L54.5254 4.33313C53.7542 4.2 53.0836 4.13312 52.5804 4.13312H52.5811ZM77.1592 4.36687H73.8729L70.8386 8.37875L67.8042 4.36625H64.5179L69.1542 10.5644L64.5179 16.6669H67.8711L70.8217 12.7756L73.7723 16.6669H77.1592L72.4917 10.5744L77.1592 4.36687V4.36687ZM17.3061 1.6C16.3336 2.9 16.0986 3.33313 15.1598 3.33313H1.14355V20H6.64293C7.88356 20 9.09043 19.4 9.86168 18.4C10.8679 17.0669 11.0017 16.6669 11.9742 16.6669H26.0242V0H20.4911C19.2504 0 18.0436 0.6 17.3054 1.6H17.3061ZM21.6648 12.3669H15.7967C14.5223 12.3669 13.3492 12.9 12.5779 13.9331C11.5717 15.2669 11.3704 15.6669 10.4317 15.6669H5.46918V7.66688H11.3373C12.6111 7.66688 13.7848 7.06687 14.5561 6.06687C15.5623 4.76687 15.8304 4.36687 16.7354 4.36687H21.6648V12.3669ZM42.7223 8.26688C43.9636 7.56688 44.8348 6.33312 44.8348 4.7C44.8348 2.3 42.9911 0 40.3086 0H32.2611V16.6669H40.3086C43.2254 16.6669 45.2373 14.6 45.2373 12C45.2373 10.4669 44.5336 9.13313 42.7223 8.26688V8.26688ZM35.1111 2.6H40.0736C41.3142 2.6 42.0517 3.76687 42.0517 4.8C42.0517 6.06687 40.9454 6.93313 39.9061 6.93313H35.1111V2.6V2.6ZM39.9061 14.0669H35.1111V9.53313H40.0736C41.3479 9.53313 42.3873 10.6331 42.3873 11.7669C42.3873 13.0331 41.0798 14.0669 39.9061 14.0669Z" fill="#3C3C3C"></path><path d="M61.6676 13.1328C61.1983 13.8666 60.2926 14.2997 59.2864 14.2997C57.7114 14.2997 56.4033 13.2328 56.4033 11.5997H64.9201C65.0545 11.0997 65.0876 10.8666 65.0876 10.4328C65.0876 6.69969 62.7739 4.13281 59.287 4.13281C55.8664 4.13281 53.4526 6.56656 53.4526 10.5328C53.4526 14.3997 55.7658 16.8997 59.3539 16.8997C61.8689 16.8997 64.082 15.6666 64.7189 13.1328H61.6676V13.1328ZM59.2864 6.73281C60.8626 6.73281 62.0701 7.73281 62.0364 9.23281H56.4364C56.4364 7.76656 57.7114 6.73281 59.2864 6.73281Z" fill="#3C3C3C"></path></g><defs><clipPath id="clip0"><rect width="76.6667" height="20" fill="white" transform="translate(0.935059)"></rect></clipPath></defs></svg>