<svg width="20" height="20" viewBox="0 0 20 20" fill="none" xmlns="http://www.w3.org/2000/svg"><path d="M10.15 8.6364V11.541H14.1863C14.0091 12.4751 13.4772 13.266 12.6795 13.7978L15.1136 15.6865C16.5318 14.3774 17.35 12.4547 17.35 10.1706C17.35 9.63876 17.3023 9.12735 17.2136 8.63648L10.15 8.6364Z" fill="#4285F4"></path><path d="M5.94674 11.4276L5.39776 11.8478L3.45453 13.3614C4.68863 15.8091 7.218 17.5001 10.1498 17.5001C12.1748 17.5001 13.8725 16.8319 15.1134 15.6865L12.6794 13.7978C12.0112 14.2478 11.1589 14.5206 10.1498 14.5206C8.19982 14.5206 6.54303 13.2047 5.9498 11.4319L5.94674 11.4276Z" fill="#34A853"></path><path d="M3.45452 6.63867C2.94318 7.64773 2.65002 8.78639 2.65002 10C2.65002 11.2136 2.94318 12.3523 3.45452 13.3614C3.45452 13.3681 5.95003 11.425 5.95003 11.425C5.80003 10.975 5.71137 10.4977 5.71137 9.99994C5.71137 9.50214 5.80003 9.02489 5.95003 8.57489L3.45452 6.63867Z" fill="#FBBC05"></path><path d="M10.15 5.48638C11.2545 5.48638 12.2364 5.86819 13.0204 6.60457L15.1682 4.45686C13.8659 3.24323 12.175 2.5 10.15 2.5C7.21816 2.5 4.68863 4.1841 3.45453 6.63867L5.94997 8.57505C6.54312 6.80229 8.19997 5.48638 10.15 5.48638Z" fill="#EA4335"></path></svg>