<svg xmlns="http://www.w3.org/2000/svg" xmlns:xlink="http://www.w3.org/1999/xlink" id="layer" x="0px" y="0px" viewBox="-153 -46 652 652" xml:space="preserve" class="w-16 h-auto"><title>New enterprise associates</title><path d="M473.1,388.3h-98.7L340,315h-68l4.7-12.5h57.5l-36.5-78.2l23.5-56.1h32.6l74.7,158.6C439,349,452.3,379.7,473.1,388.3  L473.1,388.3z M173.6,379.8v-96.4c0,0,24.7,7.4,49.4,43.6v-97.7c-24.7,36.8-49.4,42-49.4,42v-94.8c53.3,0,78.7,25.6,92,48.9  l24.4-57.4H65.1c20.4,14.4,35.2,26.9,35.2,77.2v142.9H290L264.7,335C250.3,357.4,222.9,379.8,173.6,379.8L173.6,379.8z   M-126.9,168.2c15.3,8.8,37,23.2,37,68v86.4c0,48-34.8,65.5-34.8,65.5H-44c0,0-34.8-17.4-34.8-65.5v-111L82.7,388.8V277.6  l-99.9-109.4L-126.9,168.2L-126.9,168.2z M405.9,192.6h-4.6v-16.3h6.3c3-0.6,5.9,1.3,6.5,4.3c0.1,0.3,0.1,0.6,0.1,0.8  c0.1,1.9-1.1,3.7-3,4.4l3.9,6.7h-4.4l-3.6-5.7h-1.2L405.9,192.6L405.9,192.6z M405.9,183.8h1.5c1.1,0.2,2.1-0.5,2.3-1.6  c0-0.1,0-0.3,0-0.4c0-1.1-0.9-1.9-1.9-1.9c-0.1,0-0.3,0-0.4,0h-1.5L405.9,183.8L405.9,183.8z M390.6,184.7c0-9.1,7.4-16.5,16.5-16.6  c0.1,0,0.2,0,0.3,0c9.1,0.2,16.3,7.7,16.1,16.9c-0.2,9.1-7.7,16.4-16.8,16.2C397.8,201.1,390.6,193.7,390.6,184.7L390.6,184.7z   M393.8,184.7c0,7.6,6.1,13.8,13.7,13.8c7.6,0,13.7-6.2,13.7-13.8c0-7.6-6.1-13.8-13.7-13.8C399.9,170.9,393.8,177.1,393.8,184.7  L393.8,184.7z" fill="#3c3c3c"></path></svg>